<svg width="200" height="48" viewBox="0 0 200 48" fill="none" xmlns="http://www.w3.org/2000/svg">
  <!-- Logo Icon - R with lightning bolt -->
  <rect x="0" y="0" width="48" height="48" rx="12" fill="url(#orangeGradient)"/>
  <path d="M14 12h14c5 0 8 3 8 8s-3 8-8 8h-6l10 8H26l-12-10v10h-6V12h6zm0 6v6h10c2 0 4-1 4-3s-2-3-4-3H14z" fill="white"/>
  <!-- Lightning bolt accent -->
  <path d="M32 16l-4 8h5l-5 10 8-12h-5l4-6h-3z" fill="white" opacity="0.7"/>
  
  <!-- Text: Rapid -->
  <text x="56" y="28" font-family="Poppins, sans-serif" font-weight="700" font-size="20" fill="#233C6F">Rapid</text>
  
  <!-- Text: Entrepreneurs -->
  <text x="56" y="42" font-family="Poppins, sans-serif" font-weight="600" font-size="12" fill="#EF5E33">Entrepreneurs</text>
  
  <defs>
    <linearGradient id="orangeGradient" x1="0" y1="0" x2="48" y2="48" gradientUnits="userSpaceOnUse">
      <stop stop-color="#EF5E33"/>
      <stop offset="1" stop-color="#FF7A50"/>
    </linearGradient>
  </defs>
</svg>
